<svg xmlns="http://www.w3.org/2000/svg" xmlns:xlink="http://www.w3.org/1999/xlink">
  <defs>
    <symbol id="logo" viewBox="0 0 512 512">

    </symbol>
    <symbol id="arrow-left" viewBox="0 0 512 512">
      <path fill="currentColor"
        d="M11.713 269.113c-7.683-7.683-7.683-20.137 0-27.819L240.943 9.968c7.683-7.683 20.137-7.683 27.819 0 7.683 7.683 7.683 20.137 0 27.819L48.36 256l220.402 218.213c7.683 7.683 7.683 20.137 0 27.819-7.683 7.683-20.137 7.683-27.819 0L11.713 269.113z" />
    </symbol>
    <symbol id="arrow-right" viewBox="0 0 512 512">
      <path fill="currentColor"
        d="M500.285 242.887l-233.23-233.23c-7.683-7.683-20.137-7.683-27.819
      0-7.683 7.683-7.683 20.137 0 27.819l219.326 219.326-219.326 219.326c-7.683 7.683-7.683 20.137 0
      27.819 7.683 7.683 20.137 7.683 27.819 0l233.23-233.23c3.837-3.839 5.76-8.874
      5.76-13.91.001-5.036-1.921-10.071-5.76-13.91z" />
    </symbol>
    <symbol id="trash" viewBox="0 0 512 512">
      <path fill="currentColor"
        d="M221.867 51.2c-0.069-0.001-0.15-0.002-0.232-0.002-9.427 0-17.069 7.642-17.069 17.068v0h-102.166c-0.072-0.001-0.156-0.001-0.242-0.001-9.427 0-17.069 7.642-17.069 17.069s7.642 17.069 17.069 17.069c0.085 0 0.169-0.001 0.254-0.002h307.187c0.072 0.001 0.156 0.001 0.241 0.001 9.426 0 17.069-7.642 17.069-17.069s-7.642-17.069-17.068-17.069c-0.085 0-0.17 0.001-0.254 0.002h-102.154c0-9.427-7.642-17.068-17.068-17.068-0.082 0-0.163 0.001-0.244 0.002h-68.254zM102.4 136.534v273.067c0 18.858 15.275 34.134 34.133 34.134h238.933c18.858 0 34.134-15.274 34.134-34.134v-273.067h-307.2z"></path>
    </symbol>
    <symbol id="edit" viewBox="0 0 512 512">
      <path fill="currentColor"
        d="M441.6 20.48c-12.76 0-25.48 5-35.2 14.72l-8.32 8.32 70.4 70.4c-0.040 0.040 8.32-8.32 8.32-8.32 19.48-19.48 19.44-50.96 0-70.4-9.76-9.72-22.44-14.72-35.2-14.72zM382.4 61.76c-2.32 0.32-4.48 1.48-6.080 3.2l-332.16 332.48c-1.32 1.2-2.32 2.76-2.88 4.48l-20.48 76.8c-0.92 3.52 0.12 7.24 2.68 9.8s6.28 3.6 9.8 2.68l76.8-20.48c1.72-0.56 3.28-1.56 4.48-2.88l332.48-332.16c4.080-3.96 4.12-10.48 0.16-14.56s-10.48-4.12-14.56-0.16l-330.56 330.56-41.6-41.6 330.56-330.56c3.080-2.96 4-7.56 2.28-11.48s-5.68-6.36-9.96-6.12c-0.32 0-0.64 0-0.96 0z"></path>
    </symbol>
    <symbol id="calendar" viewBox="0 0 24 24">
      <path
        fill="currentColor"
        d="M18.5 4.6H16.2V3C16.2 2.7 16 2.5 15.7 2.5C15.4 2.5 15.2 2.7 15.2 3V4.6H8.8V3C8.8 2.7 8.6 2.5 8.3
2.5C8 2.5 7.8 2.7 7.8 3V4.6H5.5C4.4 4.6 3.5 5.5 3.5 6.6V17.5C3.5 18.6 4.4 19.5 5.5 19.5H18.5C19.6
19.5 20.5 18.6 20.5 17.5V6.6C20.5 5.5 19.6 4.6 18.5 4.6ZM5.5 5.6H7.8V6.7C7.8 7 8 7.2 8.3 7.2C8.6
7.2
8.8 7 8.8 6.7V5.6H15.3V6.7C15.3 7 15.5 7.2 15.8 7.2C16.1 7.2 16.3 7 16.3 6.7V5.6H18.6C19.2 5.6 19.6
6 19.6 6.6V8.9H4.6V6.6C4.5 6.1 4.9 5.6 5.5 5.6ZM18.5 18.5H5.5C4.9 18.5 4.5 18.1 4.5
17.5V9.9H19.5V17.5C19.5 18.1 19.1 18.5 18.5 18.5Z"></path>
      <path
        fill="currentColor"
        d="M7.50001 11.6C7.10001 11.6 6.70001 11.9 6.70001 12.4C6.70001 12.9 7.00001 13.2 7.50001
13.2C8.00001 13.2 8.30001 12.9 8.30001 12.4C8.30001 11.9 7.90001 11.6 7.50001 11.6Z"></path>
      <path
        fill="currentColor"
        d="M7.50001 15.3C7.10001 15.3 6.70001 15.6 6.70001 16.1C6.70001 16.6 7.00001 16.9 7.50001
16.9C8.00001 16.9 8.30001 16.6 8.30001 16.1C8.30001 15.6 7.90001 15.3 7.50001 15.3Z"></path>
      <path
        fill="currentColor"
        d="M12 11.6C11.6 11.6 11.2 11.9 11.2 12.4C11.2 12.9 11.5 13.2 12 13.2C12.5 13.2 12.8 12.9 12.8
12.4C12.8 11.9 12.4 11.6 12 11.6Z"></path>
      <path
        fill="currentColor"
        d="M12 15.3C11.6 15.3 11.2 15.6 11.2 16.1C11.2 16.6 11.5 16.9 12 16.9C12.5 16.9 12.8 16.6 12.8
16.1C12.8 15.6 12.4 15.3 12 15.3Z"></path>
      <path
        fill="currentColor"
        d="M16.5 11.6C16.1 11.6 15.7 11.9 15.7 12.4C15.7 12.9 16 13.2 16.5 13.2C17 13.2 17.3 12.9 17.3
12.4C17.3 11.9 17 11.6 16.5 11.6Z"></path>
      <path
        fill="currentColor"
        d="M16.5 15.3C16.1 15.3 15.7 15.6 15.7 16.1C15.7 16.6 16 16.9 16.5 16.9C17 16.9 17.3 16.6 17.3
16.1C17.3 15.6 17 15.3 16.5 15.3Z"></path>
    </symbol>
    <symbol id="departure" viewBox="0 0 512 512">
      <path
        fill="currentColor"
        d="M192.016 384l91.411-91.41 164.575 219.41 63.998-64.005-109.721-274.26 86.353-86.35c24.889-24.89 30.853-59.651 13.254-77.251-17.599-17.599-52.363-11.634-77.25 13.255l-86.342 86.343-274.291-109.732-64.003 63.995 219.434 164.595-91.414 91.413h-127.99v63.997l95.994 31.996 31.998 95.994h63.996l-0.002-127.99z"></path>
    </symbol>
    <symbol id="arrival" viewBox="0 0 512 512">
      <path
        fill="currentColor"
        d="M384 319.984l-91.41-91.411 219.41-164.575-64.005-63.998-274.26 109.721-86.35-86.353c-24.89-24.889-59.651-30.853-77.251-13.254-17.599 17.599-11.634 52.363 13.255 77.25l86.343 86.342-109.732 274.291 63.995 64.003 164.595-219.434 91.413 91.414v127.99h63.997l31.996-95.994 95.994-31.998v-63.996l-127.99 0.002z"></path>
    </symbol>
    <symbol id="arrow-foward" viewBox="0 0 768 768">
      <path fill="currentColor"
        d="M384 127.5l256.5 256.5-256.5 256.5-45-45 178.5-180h-390v-63h390l-178.5-180z"></path>
    </symbol>
    <symbol id="arrow-back" viewBox="0 0 768 768">
      <path fill="currentColor"
        d="M384 640.5l-256.5-256.5 256.5-256.5 45 45-178.5 180h390v63h-390l178.5 180z"></path>
    </symbol>
    <symbol id="members" viewBox="0 0 768 768">
      <path fill="currentColor"
        d="M511.5 127.5q0-25.5 18.75-44.25t45.75-18.75 45.75 18.75 18.75 44.25q0 27-18.75 45.75t-45.75 18.75-45.75-18.75-18.75-45.75zM640.5 703.5v-192h79.5l-81-243q-7.5-21-24-33t-37.5-12h-3q-21 0-37.5 12t-24 33l-27 82.5q25.5 13.5 42 39.75t16.5 57.75v255h96zM400.5 367.5q19.5 0 33.75-13.5t14.25-34.5q0-19.5-14.25-33.75t-33.75-14.25q-21 0-34.5 14.25t-13.5 33.75q0 21 13.5 34.5t34.5 13.5zM175.5 192q27 0 45.75-18.75t18.75-45.75q0-25.5-18.75-44.25t-45.75-18.75q-25.5 0-44.25 18.75t-18.75 44.25q0 27 18.75 45.75t44.25 18.75zM240 703.5v-223.5h48v-192q0-27-18.75-45.75t-45.75-18.75h-96q-25.5 0-44.25 18.75t-18.75 45.75v192h48v223.5h127.5zM448.5 703.5v-127.5h31.5v-127.5q0-19.5-14.25-33.75t-33.75-14.25h-64.5q-19.5 0-33.75 14.25t-14.25 33.75v127.5h33v127.5h96z"></path>
    </symbol>
    <symbol id="member" viewBox="0 0 768 768">
      <path fill="currentColor"
        d="M384 415.5q48 0 105 13.5t104.25 45 47.25 70.5v96h-513v-96q0-39 47.25-70.5t104.25-45 105-13.5zM384 127.5q52.5 0 90 38.25t37.5 90.75-37.5 90-90 37.5-90-37.5-37.5-90 37.5-90.75 90-38.25zM384 477q-66 0-130.5 24.75t-64.5 42.75v34.5h390v-34.5q0-18-64.5-42.75t-130.5-24.75zM384 189q-28.5 0-48 19.5t-19.5 48 19.5 47.25 48 18.75 48-18.75 19.5-47.25-19.5-48-48-19.5z"></path>
    </symbol>
    <symbol id="close" viewBox="0 0 768 768">
      <path fill="currentColor"
        d="M607.5 205.5l-178.5 178.5 178.5 178.5-45 45-178.5-178.5-178.5 178.5-45-45 178.5-178.5-178.5-178.5 45-45 178.5 178.5 178.5-178.5z"></path>
    </symbol>
  </defs>
</svg>